%
M48
M72
T01C0.0400
%
T01
X1006Y1006
X1006Y2006
X1006Y3006
X1006Y4006
X1006Y5006
X1006Y6006
X1006Y7006
X1006Y8006
X1006Y9006
X1006Y10006
X1006Y11006
X1006Y12006
X1006Y13006
X1006Y14006
X1006Y15006
X3006Y1006
X4006Y1006
X5006Y1006
X6006Y1006
X7006Y1006
X8006Y1006
X9006Y1006
X10006Y1006
X11006Y1006
X13006Y1006
X13006Y2006
X13006Y3006
X13006Y4006
X13006Y5006
X13006Y6006
X13006Y7006
X13006Y8006
X13006Y9006
X13006Y10006
X13006Y11006
X13006Y12006
X13006Y13006
X13006Y14006
X13006Y15006
M30
