G75*
%MOIN*%
%OFA0B0*%
%FSLAX25Y25*%
%IPPOS*%
%LPD*%
%AMOC8*
5,1,8,0,0,1.08239X$1,22.5*
%
%ADD10C,0.00600*%
%ADD11C,0.00800*%
%ADD12C,0.00500*%
%ADD13C,0.00200*%
D10*
X0015360Y0006860D02*
X0019630Y0011130D01*
X0019630Y0012198D01*
X0018563Y0013265D01*
X0016428Y0013265D01*
X0015360Y0012198D01*
X0015360Y0016860D02*
X0019630Y0016860D01*
X0017495Y0016860D02*
X0017495Y0023265D01*
X0015360Y0021130D01*
X0016428Y0026860D02*
X0015360Y0027928D01*
X0019630Y0032198D01*
X0019630Y0027928D01*
X0018563Y0026860D01*
X0016428Y0026860D01*
X0015360Y0027928D02*
X0015360Y0032198D01*
X0016428Y0033265D01*
X0018563Y0033265D01*
X0019630Y0032198D01*
X0018563Y0036860D02*
X0016428Y0036860D01*
X0015360Y0037928D01*
X0015360Y0042198D01*
X0016428Y0043265D01*
X0018563Y0043265D01*
X0019630Y0042198D01*
X0019630Y0040063D02*
X0017495Y0040063D01*
X0019630Y0040063D02*
X0019630Y0037928D01*
X0018563Y0036860D01*
X0026855Y0038987D02*
X0026855Y0041122D01*
X0027922Y0042190D01*
X0028990Y0042190D01*
X0030057Y0041122D01*
X0031125Y0042190D01*
X0032192Y0042190D01*
X0033260Y0041122D01*
X0033260Y0038987D01*
X0032192Y0037919D01*
X0032192Y0035744D02*
X0033260Y0034676D01*
X0033260Y0032541D01*
X0032192Y0031474D01*
X0027922Y0035744D01*
X0032192Y0035744D01*
X0030057Y0040054D02*
X0030057Y0041122D01*
X0026855Y0038987D02*
X0027922Y0037919D01*
X0027922Y0035744D02*
X0026855Y0034676D01*
X0026855Y0032541D01*
X0027922Y0031474D01*
X0032192Y0031474D01*
X0032192Y0029319D02*
X0033260Y0029319D01*
X0033260Y0028251D01*
X0032192Y0028251D01*
X0032192Y0029319D01*
X0032192Y0026076D02*
X0033260Y0025008D01*
X0033260Y0022873D01*
X0032192Y0021805D01*
X0027922Y0026076D01*
X0032192Y0026076D01*
X0027922Y0026076D02*
X0026855Y0025008D01*
X0026855Y0022873D01*
X0027922Y0021805D01*
X0032192Y0021805D01*
X0030057Y0019630D02*
X0031125Y0018563D01*
X0031125Y0015360D01*
X0033260Y0015360D02*
X0026855Y0015360D01*
X0026855Y0018563D01*
X0027922Y0019630D01*
X0030057Y0019630D01*
X0036855Y0018563D02*
X0036855Y0015360D01*
X0043260Y0015360D01*
X0041125Y0015360D02*
X0041125Y0018563D01*
X0040057Y0019630D01*
X0037922Y0019630D01*
X0036855Y0018563D01*
X0037922Y0021805D02*
X0036855Y0022873D01*
X0036855Y0025008D01*
X0037922Y0026076D01*
X0042192Y0021805D01*
X0043260Y0022873D01*
X0043260Y0025008D01*
X0042192Y0026076D01*
X0037922Y0026076D01*
X0037922Y0021805D02*
X0042192Y0021805D01*
X0046855Y0022873D02*
X0046855Y0025008D01*
X0047922Y0026076D01*
X0052192Y0021805D01*
X0053260Y0022873D01*
X0053260Y0025008D01*
X0052192Y0026076D01*
X0047922Y0026076D01*
X0046855Y0022873D02*
X0047922Y0021805D01*
X0052192Y0021805D01*
X0050057Y0019630D02*
X0051125Y0018563D01*
X0051125Y0015360D01*
X0053260Y0015360D02*
X0046855Y0015360D01*
X0046855Y0018563D01*
X0047922Y0019630D01*
X0050057Y0019630D01*
X0056855Y0018563D02*
X0056855Y0015360D01*
X0063260Y0015360D01*
X0061125Y0015360D02*
X0061125Y0018563D01*
X0060057Y0019630D01*
X0057922Y0019630D01*
X0056855Y0018563D01*
X0057922Y0021805D02*
X0056855Y0022873D01*
X0056855Y0025008D01*
X0057922Y0026076D01*
X0062192Y0021805D01*
X0063260Y0022873D01*
X0063260Y0025008D01*
X0062192Y0026076D01*
X0057922Y0026076D01*
X0057922Y0021805D02*
X0062192Y0021805D01*
X0066855Y0022873D02*
X0066855Y0025008D01*
X0067922Y0026076D01*
X0072192Y0021805D01*
X0073260Y0022873D01*
X0073260Y0025008D01*
X0072192Y0026076D01*
X0067922Y0026076D01*
X0066855Y0022873D02*
X0067922Y0021805D01*
X0072192Y0021805D01*
X0070057Y0019630D02*
X0071125Y0018563D01*
X0071125Y0015360D01*
X0073260Y0015360D02*
X0066855Y0015360D01*
X0066855Y0018563D01*
X0067922Y0019630D01*
X0070057Y0019630D01*
X0076855Y0018563D02*
X0076855Y0015360D01*
X0083260Y0015360D01*
X0081125Y0015360D02*
X0081125Y0018563D01*
X0080057Y0019630D01*
X0077922Y0019630D01*
X0076855Y0018563D01*
X0077922Y0021805D02*
X0076855Y0022873D01*
X0076855Y0025008D01*
X0077922Y0026076D01*
X0082192Y0021805D01*
X0083260Y0022873D01*
X0083260Y0025008D01*
X0082192Y0026076D01*
X0077922Y0026076D01*
X0077922Y0021805D02*
X0082192Y0021805D01*
X0086855Y0022873D02*
X0086855Y0025008D01*
X0087922Y0026076D01*
X0092192Y0021805D01*
X0093260Y0022873D01*
X0093260Y0025008D01*
X0092192Y0026076D01*
X0087922Y0026076D01*
X0086855Y0022873D02*
X0087922Y0021805D01*
X0092192Y0021805D01*
X0090057Y0019630D02*
X0091125Y0018563D01*
X0091125Y0015360D01*
X0093260Y0015360D02*
X0086855Y0015360D01*
X0086855Y0018563D01*
X0087922Y0019630D01*
X0090057Y0019630D01*
X0096855Y0018563D02*
X0096855Y0015360D01*
X0103260Y0015360D01*
X0101125Y0015360D02*
X0101125Y0018563D01*
X0100057Y0019630D01*
X0097922Y0019630D01*
X0096855Y0018563D01*
X0097922Y0021805D02*
X0096855Y0022873D01*
X0096855Y0025008D01*
X0097922Y0026076D01*
X0102192Y0021805D01*
X0103260Y0022873D01*
X0103260Y0025008D01*
X0102192Y0026076D01*
X0097922Y0026076D01*
X0097922Y0021805D02*
X0102192Y0021805D01*
X0106855Y0021805D02*
X0113260Y0026076D01*
X0106855Y0026076D01*
X0106855Y0028251D02*
X0106855Y0031454D01*
X0107922Y0032521D01*
X0112192Y0032521D01*
X0113260Y0031454D01*
X0113260Y0028251D01*
X0106855Y0028251D01*
X0103260Y0028251D02*
X0103260Y0029319D01*
X0102192Y0029319D01*
X0102192Y0028251D01*
X0103260Y0028251D01*
X0103260Y0031474D02*
X0103260Y0035744D01*
X0102192Y0037919D02*
X0097922Y0042190D01*
X0102192Y0042190D01*
X0103260Y0041122D01*
X0103260Y0038987D01*
X0102192Y0037919D01*
X0097922Y0037919D01*
X0096855Y0038987D01*
X0096855Y0041122D01*
X0097922Y0042190D01*
X0093260Y0041122D02*
X0093260Y0038987D01*
X0092192Y0037919D01*
X0092192Y0035744D02*
X0093260Y0034676D01*
X0093260Y0032541D01*
X0092192Y0031474D01*
X0087922Y0035744D01*
X0092192Y0035744D01*
X0088990Y0037919D02*
X0090057Y0038987D01*
X0090057Y0042190D01*
X0092192Y0042190D02*
X0087922Y0042190D01*
X0086855Y0041122D01*
X0086855Y0038987D01*
X0087922Y0037919D01*
X0088990Y0037919D01*
X0087922Y0035744D02*
X0086855Y0034676D01*
X0086855Y0032541D01*
X0087922Y0031474D01*
X0092192Y0031474D01*
X0092192Y0029319D02*
X0093260Y0029319D01*
X0093260Y0028251D01*
X0092192Y0028251D01*
X0092192Y0029319D01*
X0096855Y0033609D02*
X0103260Y0033609D01*
X0098990Y0031474D02*
X0096855Y0033609D01*
X0093260Y0041122D02*
X0092192Y0042190D01*
X0096355Y0046860D02*
X0096355Y0053265D01*
X0099558Y0053265D01*
X0100626Y0052198D01*
X0100626Y0050063D01*
X0099558Y0048995D01*
X0096355Y0048995D01*
X0102801Y0047928D02*
X0107071Y0052198D01*
X0107071Y0047928D01*
X0106003Y0046860D01*
X0103868Y0046860D01*
X0102801Y0047928D01*
X0102801Y0052198D01*
X0103868Y0053265D01*
X0106003Y0053265D01*
X0107071Y0052198D01*
X0109246Y0047928D02*
X0110314Y0047928D01*
X0110314Y0046860D01*
X0109246Y0046860D01*
X0109246Y0047928D01*
X0112469Y0046860D02*
X0116739Y0046860D01*
X0118914Y0047928D02*
X0119982Y0046860D01*
X0122117Y0046860D01*
X0123185Y0047928D01*
X0123185Y0050063D01*
X0122117Y0051130D01*
X0121050Y0051130D01*
X0118914Y0050063D01*
X0118914Y0053265D01*
X0123185Y0053265D01*
X0122117Y0056860D02*
X0119982Y0056860D01*
X0118914Y0057928D01*
X0118914Y0060063D01*
X0122117Y0060063D01*
X0123185Y0058995D01*
X0123185Y0057928D01*
X0122117Y0056860D01*
X0118914Y0060063D02*
X0121050Y0062198D01*
X0123185Y0063265D01*
X0118914Y0066860D02*
X0118914Y0067928D01*
X0123185Y0072198D01*
X0123185Y0073265D01*
X0118914Y0073265D01*
X0119982Y0076860D02*
X0118914Y0077928D01*
X0118914Y0078995D01*
X0119982Y0080063D01*
X0122117Y0080063D01*
X0123185Y0078995D01*
X0123185Y0077928D01*
X0122117Y0076860D01*
X0119982Y0076860D01*
X0119982Y0080063D02*
X0118914Y0081130D01*
X0118914Y0082198D01*
X0119982Y0083265D01*
X0122117Y0083265D01*
X0123185Y0082198D01*
X0123185Y0081130D01*
X0122117Y0080063D01*
X0116739Y0076860D02*
X0112469Y0076860D01*
X0114604Y0076860D02*
X0114604Y0083265D01*
X0112469Y0081130D01*
X0110314Y0077928D02*
X0110314Y0076860D01*
X0109246Y0076860D01*
X0109246Y0077928D01*
X0110314Y0077928D01*
X0107071Y0077928D02*
X0106003Y0076860D01*
X0103868Y0076860D01*
X0102801Y0077928D01*
X0107071Y0082198D01*
X0107071Y0077928D01*
X0106003Y0073265D02*
X0103868Y0073265D01*
X0102801Y0072198D01*
X0102801Y0067928D01*
X0107071Y0072198D01*
X0107071Y0067928D01*
X0106003Y0066860D01*
X0103868Y0066860D01*
X0102801Y0067928D01*
X0100626Y0070063D02*
X0099558Y0068995D01*
X0096355Y0068995D01*
X0096355Y0066860D02*
X0096355Y0073265D01*
X0099558Y0073265D01*
X0100626Y0072198D01*
X0100626Y0070063D01*
X0106003Y0073265D02*
X0107071Y0072198D01*
X0109246Y0067928D02*
X0110314Y0067928D01*
X0110314Y0066860D01*
X0109246Y0066860D01*
X0109246Y0067928D01*
X0106003Y0063265D02*
X0107071Y0062198D01*
X0102801Y0057928D01*
X0103868Y0056860D01*
X0106003Y0056860D01*
X0107071Y0057928D01*
X0107071Y0062198D01*
X0106003Y0063265D02*
X0103868Y0063265D01*
X0102801Y0062198D01*
X0102801Y0057928D01*
X0100626Y0060063D02*
X0100626Y0062198D01*
X0099558Y0063265D01*
X0096355Y0063265D01*
X0096355Y0056860D01*
X0096355Y0058995D02*
X0099558Y0058995D01*
X0100626Y0060063D01*
X0109246Y0057928D02*
X0109246Y0056860D01*
X0110314Y0056860D01*
X0110314Y0057928D01*
X0109246Y0057928D01*
X0112469Y0056860D02*
X0116739Y0056860D01*
X0114604Y0056860D02*
X0114604Y0063265D01*
X0112469Y0061130D01*
X0112469Y0066860D02*
X0116739Y0066860D01*
X0114604Y0066860D02*
X0114604Y0073265D01*
X0112469Y0071130D01*
X0102801Y0077928D02*
X0102801Y0082198D01*
X0103868Y0083265D01*
X0106003Y0083265D01*
X0107071Y0082198D01*
X0106003Y0086860D02*
X0103868Y0086860D01*
X0102801Y0087928D01*
X0107071Y0092198D01*
X0107071Y0087928D01*
X0106003Y0086860D01*
X0109246Y0086860D02*
X0110314Y0086860D01*
X0110314Y0087928D01*
X0109246Y0087928D01*
X0109246Y0086860D01*
X0112469Y0086860D02*
X0116739Y0086860D01*
X0118914Y0087928D02*
X0119982Y0086860D01*
X0122117Y0086860D01*
X0123185Y0087928D01*
X0123185Y0092198D01*
X0122117Y0093265D01*
X0119982Y0093265D01*
X0118914Y0092198D01*
X0118914Y0091130D01*
X0119982Y0090063D01*
X0123185Y0090063D01*
X0122117Y0096860D02*
X0119982Y0096860D01*
X0118914Y0097928D01*
X0123185Y0102198D01*
X0123185Y0097928D01*
X0122117Y0096860D01*
X0118914Y0097928D02*
X0118914Y0102198D01*
X0119982Y0103265D01*
X0122117Y0103265D01*
X0123185Y0102198D01*
X0121050Y0106860D02*
X0121050Y0113265D01*
X0123185Y0113265D02*
X0118914Y0113265D01*
X0116739Y0112198D02*
X0115672Y0113265D01*
X0113537Y0113265D01*
X0112469Y0112198D01*
X0112469Y0111130D01*
X0113537Y0110063D01*
X0115672Y0110063D01*
X0116739Y0108995D01*
X0116739Y0107928D01*
X0115672Y0106860D01*
X0113537Y0106860D01*
X0112469Y0107928D01*
X0110294Y0106860D02*
X0108159Y0108995D01*
X0109226Y0108995D02*
X0106023Y0108995D01*
X0106023Y0106860D02*
X0106023Y0113265D01*
X0109226Y0113265D01*
X0110294Y0112198D01*
X0110294Y0110063D01*
X0109226Y0108995D01*
X0103848Y0113265D02*
X0099578Y0106860D01*
X0097403Y0106860D02*
X0093132Y0106860D01*
X0095268Y0106860D02*
X0095268Y0113265D01*
X0093132Y0111130D01*
X0090957Y0111130D02*
X0090957Y0112198D01*
X0089890Y0113265D01*
X0087755Y0113265D01*
X0086687Y0112198D01*
X0090957Y0111130D02*
X0086687Y0106860D01*
X0090957Y0106860D01*
X0096355Y0103265D02*
X0099558Y0103265D01*
X0100626Y0102198D01*
X0100626Y0100063D01*
X0099558Y0098995D01*
X0096355Y0098995D01*
X0096355Y0096860D02*
X0096355Y0103265D01*
X0102801Y0102198D02*
X0102801Y0097928D01*
X0107071Y0102198D01*
X0107071Y0097928D01*
X0106003Y0096860D01*
X0103868Y0096860D01*
X0102801Y0097928D01*
X0102801Y0102198D02*
X0103868Y0103265D01*
X0106003Y0103265D01*
X0107071Y0102198D01*
X0109246Y0097928D02*
X0110314Y0097928D01*
X0110314Y0096860D01*
X0109246Y0096860D01*
X0109246Y0097928D01*
X0112469Y0096860D02*
X0116739Y0101130D01*
X0116739Y0102198D01*
X0115672Y0103265D01*
X0113537Y0103265D01*
X0112469Y0102198D01*
X0112469Y0096860D02*
X0116739Y0096860D01*
X0114604Y0093265D02*
X0114604Y0086860D01*
X0112469Y0091130D02*
X0114604Y0093265D01*
X0107071Y0092198D02*
X0106003Y0093265D01*
X0103868Y0093265D01*
X0102801Y0092198D01*
X0102801Y0087928D01*
X0100626Y0090063D02*
X0099558Y0088995D01*
X0096355Y0088995D01*
X0096355Y0086860D02*
X0096355Y0093265D01*
X0099558Y0093265D01*
X0100626Y0092198D01*
X0100626Y0090063D01*
X0099558Y0083265D02*
X0096355Y0083265D01*
X0096355Y0076860D01*
X0096355Y0078995D02*
X0099558Y0078995D01*
X0100626Y0080063D01*
X0100626Y0082198D01*
X0099558Y0083265D01*
X0114604Y0053265D02*
X0114604Y0046860D01*
X0114604Y0043265D02*
X0114604Y0036860D01*
X0112469Y0036860D02*
X0116739Y0036860D01*
X0118914Y0040063D02*
X0123185Y0040063D01*
X0122117Y0043265D02*
X0122117Y0036860D01*
X0122117Y0033265D02*
X0119982Y0033265D01*
X0118914Y0032198D01*
X0121050Y0030063D02*
X0122117Y0030063D01*
X0123185Y0028995D01*
X0123185Y0027928D01*
X0122117Y0026860D01*
X0119982Y0026860D01*
X0118914Y0027928D01*
X0116739Y0026860D02*
X0112469Y0026860D01*
X0114604Y0026860D02*
X0114604Y0033265D01*
X0112469Y0031130D01*
X0114604Y0023265D02*
X0114604Y0016860D01*
X0113260Y0016428D02*
X0113260Y0018563D01*
X0112192Y0019630D01*
X0110057Y0019630D01*
X0110057Y0017495D01*
X0107922Y0015360D02*
X0112192Y0015360D01*
X0113260Y0016428D01*
X0112469Y0016860D02*
X0116739Y0016860D01*
X0118914Y0016860D02*
X0123185Y0021130D01*
X0123185Y0022198D01*
X0122117Y0023265D01*
X0119982Y0023265D01*
X0118914Y0022198D01*
X0114604Y0023265D02*
X0112469Y0021130D01*
X0113260Y0021805D02*
X0106855Y0021805D01*
X0107922Y0019630D02*
X0106855Y0018563D01*
X0106855Y0016428D01*
X0107922Y0015360D01*
X0112469Y0011130D02*
X0114604Y0013265D01*
X0114604Y0006860D01*
X0112469Y0006860D02*
X0116739Y0006860D01*
X0118914Y0006860D02*
X0123185Y0006860D01*
X0121050Y0006860D02*
X0121050Y0013265D01*
X0118914Y0011130D01*
X0118914Y0016860D02*
X0123185Y0016860D01*
X0122117Y0030063D02*
X0123185Y0031130D01*
X0123185Y0032198D01*
X0122117Y0033265D01*
X0118914Y0040063D02*
X0122117Y0043265D01*
X0114604Y0043265D02*
X0112469Y0041130D01*
X0112469Y0051130D02*
X0114604Y0053265D01*
X0083260Y0041122D02*
X0083260Y0038987D01*
X0082192Y0037919D01*
X0081125Y0037919D01*
X0080057Y0038987D01*
X0080057Y0041122D01*
X0081125Y0042190D01*
X0082192Y0042190D01*
X0083260Y0041122D01*
X0080057Y0041122D02*
X0078990Y0042190D01*
X0077922Y0042190D01*
X0076855Y0041122D01*
X0076855Y0038987D01*
X0077922Y0037919D01*
X0078990Y0037919D01*
X0080057Y0038987D01*
X0077922Y0035744D02*
X0082192Y0035744D01*
X0083260Y0034676D01*
X0083260Y0032541D01*
X0082192Y0031474D01*
X0077922Y0035744D01*
X0076855Y0034676D01*
X0076855Y0032541D01*
X0077922Y0031474D01*
X0082192Y0031474D01*
X0082192Y0029319D02*
X0083260Y0029319D01*
X0083260Y0028251D01*
X0082192Y0028251D01*
X0082192Y0029319D01*
X0073260Y0029319D02*
X0073260Y0028251D01*
X0072192Y0028251D01*
X0072192Y0029319D01*
X0073260Y0029319D01*
X0072192Y0031474D02*
X0067922Y0035744D01*
X0072192Y0035744D01*
X0073260Y0034676D01*
X0073260Y0032541D01*
X0072192Y0031474D01*
X0067922Y0031474D01*
X0066855Y0032541D01*
X0066855Y0034676D01*
X0067922Y0035744D01*
X0066855Y0037919D02*
X0066855Y0042190D01*
X0067922Y0042190D01*
X0072192Y0037919D01*
X0073260Y0037919D01*
X0063260Y0038987D02*
X0063260Y0041122D01*
X0062192Y0042190D01*
X0061125Y0042190D01*
X0060057Y0041122D01*
X0060057Y0037919D01*
X0062192Y0037919D01*
X0063260Y0038987D01*
X0062192Y0035744D02*
X0063260Y0034676D01*
X0063260Y0032541D01*
X0062192Y0031474D01*
X0057922Y0035744D01*
X0062192Y0035744D01*
X0060057Y0037919D02*
X0057922Y0040054D01*
X0056855Y0042190D01*
X0053260Y0041122D02*
X0053260Y0038987D01*
X0052192Y0037919D01*
X0052192Y0035744D02*
X0053260Y0034676D01*
X0053260Y0032541D01*
X0052192Y0031474D01*
X0047922Y0035744D01*
X0052192Y0035744D01*
X0050057Y0037919D02*
X0048990Y0040054D01*
X0048990Y0041122D01*
X0050057Y0042190D01*
X0052192Y0042190D01*
X0053260Y0041122D01*
X0050057Y0037919D02*
X0046855Y0037919D01*
X0046855Y0042190D01*
X0043260Y0041122D02*
X0036855Y0041122D01*
X0040057Y0037919D01*
X0040057Y0042190D01*
X0037922Y0035744D02*
X0042192Y0031474D01*
X0043260Y0032541D01*
X0043260Y0034676D01*
X0042192Y0035744D01*
X0037922Y0035744D01*
X0036855Y0034676D01*
X0036855Y0032541D01*
X0037922Y0031474D01*
X0042192Y0031474D01*
X0042192Y0029319D02*
X0043260Y0029319D01*
X0043260Y0028251D01*
X0042192Y0028251D01*
X0042192Y0029319D01*
X0046855Y0032541D02*
X0046855Y0034676D01*
X0047922Y0035744D01*
X0046855Y0032541D02*
X0047922Y0031474D01*
X0052192Y0031474D01*
X0052192Y0029319D02*
X0053260Y0029319D01*
X0053260Y0028251D01*
X0052192Y0028251D01*
X0052192Y0029319D01*
X0056855Y0032541D02*
X0056855Y0034676D01*
X0057922Y0035744D01*
X0056855Y0032541D02*
X0057922Y0031474D01*
X0062192Y0031474D01*
X0062192Y0029319D02*
X0063260Y0029319D01*
X0063260Y0028251D01*
X0062192Y0028251D01*
X0062192Y0029319D01*
X0032521Y0047928D02*
X0032521Y0052198D01*
X0031454Y0053265D01*
X0028251Y0053265D01*
X0028251Y0046860D01*
X0031454Y0046860D01*
X0032521Y0047928D01*
X0026076Y0047928D02*
X0026076Y0052198D01*
X0025008Y0053265D01*
X0021805Y0053265D01*
X0021805Y0046860D01*
X0025008Y0046860D01*
X0026076Y0047928D01*
X0019630Y0048995D02*
X0019630Y0053265D01*
X0018563Y0056860D02*
X0019630Y0057928D01*
X0019630Y0062198D01*
X0018563Y0063265D01*
X0015360Y0063265D01*
X0015360Y0056860D01*
X0018563Y0056860D01*
X0021805Y0057928D02*
X0022873Y0056860D01*
X0025008Y0056860D01*
X0026076Y0057928D01*
X0028251Y0057928D02*
X0028251Y0062198D01*
X0029319Y0063265D01*
X0031454Y0063265D01*
X0032521Y0062198D01*
X0032521Y0057928D02*
X0031454Y0056860D01*
X0029319Y0056860D01*
X0028251Y0057928D01*
X0026076Y0062198D02*
X0025008Y0063265D01*
X0022873Y0063265D01*
X0021805Y0062198D01*
X0021805Y0057928D01*
X0015360Y0053265D02*
X0015360Y0048995D01*
X0017495Y0046860D01*
X0019630Y0048995D01*
X0018563Y0066860D02*
X0015360Y0066860D01*
X0015360Y0073265D01*
X0018563Y0073265D01*
X0019630Y0072198D01*
X0019630Y0067928D01*
X0018563Y0066860D01*
X0021805Y0066860D02*
X0026076Y0066860D01*
X0028251Y0067928D02*
X0029319Y0066860D01*
X0031454Y0066860D01*
X0032521Y0067928D01*
X0034696Y0070063D02*
X0038967Y0070063D01*
X0037899Y0073265D02*
X0037899Y0066860D01*
X0034696Y0070063D02*
X0037899Y0073265D01*
X0037919Y0076860D02*
X0042190Y0076860D01*
X0040054Y0076860D02*
X0040054Y0083265D01*
X0037919Y0081130D01*
X0035744Y0081130D02*
X0034676Y0080063D01*
X0035744Y0078995D01*
X0035744Y0077928D01*
X0034676Y0076860D01*
X0032541Y0076860D01*
X0031474Y0077928D01*
X0029319Y0077928D02*
X0029319Y0076860D01*
X0028251Y0076860D01*
X0028251Y0077928D01*
X0029319Y0077928D01*
X0026076Y0077928D02*
X0025008Y0076860D01*
X0022873Y0076860D01*
X0021805Y0077928D01*
X0026076Y0082198D01*
X0026076Y0077928D01*
X0026076Y0073265D02*
X0021805Y0073265D01*
X0021805Y0066860D01*
X0021805Y0070063D02*
X0023941Y0070063D01*
X0028251Y0072198D02*
X0028251Y0067928D01*
X0028251Y0072198D02*
X0029319Y0073265D01*
X0031454Y0073265D01*
X0032521Y0072198D01*
X0033609Y0080063D02*
X0034676Y0080063D01*
X0035744Y0081130D02*
X0035744Y0082198D01*
X0034676Y0083265D01*
X0032541Y0083265D01*
X0031474Y0082198D01*
X0032541Y0086860D02*
X0031474Y0087928D01*
X0032541Y0086860D02*
X0034676Y0086860D01*
X0035744Y0087928D01*
X0035744Y0088995D01*
X0034676Y0090063D01*
X0033609Y0090063D01*
X0034676Y0090063D02*
X0035744Y0091130D01*
X0035744Y0092198D01*
X0034676Y0093265D01*
X0032541Y0093265D01*
X0031474Y0092198D01*
X0031474Y0096860D02*
X0035744Y0101130D01*
X0035744Y0102198D01*
X0034676Y0103265D01*
X0032541Y0103265D01*
X0031474Y0102198D01*
X0031474Y0106860D02*
X0035744Y0111130D01*
X0035744Y0112198D01*
X0034676Y0113265D01*
X0032541Y0113265D01*
X0031474Y0112198D01*
X0029319Y0107928D02*
X0029319Y0106860D01*
X0028251Y0106860D01*
X0028251Y0107928D01*
X0029319Y0107928D01*
X0031474Y0106860D02*
X0035744Y0106860D01*
X0037919Y0107928D02*
X0037919Y0108995D01*
X0038987Y0110063D01*
X0041122Y0110063D01*
X0042190Y0108995D01*
X0042190Y0107928D01*
X0041122Y0106860D01*
X0038987Y0106860D01*
X0037919Y0107928D01*
X0038987Y0110063D02*
X0037919Y0111130D01*
X0037919Y0112198D01*
X0038987Y0113265D01*
X0041122Y0113265D01*
X0042190Y0112198D01*
X0042190Y0111130D01*
X0041122Y0110063D01*
X0041122Y0103265D02*
X0038987Y0103265D01*
X0037919Y0102198D01*
X0037919Y0101130D01*
X0038987Y0100063D01*
X0042190Y0100063D01*
X0042190Y0097928D02*
X0042190Y0102198D01*
X0041122Y0103265D01*
X0042190Y0097928D02*
X0041122Y0096860D01*
X0038987Y0096860D01*
X0037919Y0097928D01*
X0035744Y0096860D02*
X0031474Y0096860D01*
X0029319Y0096860D02*
X0028251Y0096860D01*
X0028251Y0097928D01*
X0029319Y0097928D01*
X0029319Y0096860D01*
X0026076Y0097928D02*
X0025008Y0096860D01*
X0022873Y0096860D01*
X0021805Y0097928D01*
X0026076Y0102198D01*
X0026076Y0097928D01*
X0026076Y0102198D02*
X0025008Y0103265D01*
X0022873Y0103265D01*
X0021805Y0102198D01*
X0021805Y0097928D01*
X0019630Y0100063D02*
X0018563Y0098995D01*
X0015360Y0098995D01*
X0015360Y0096860D02*
X0015360Y0103265D01*
X0018563Y0103265D01*
X0019630Y0102198D01*
X0019630Y0100063D01*
X0018563Y0093265D02*
X0015360Y0093265D01*
X0015360Y0086860D01*
X0015360Y0088995D02*
X0018563Y0088995D01*
X0019630Y0090063D01*
X0019630Y0092198D01*
X0018563Y0093265D01*
X0021805Y0092198D02*
X0022873Y0093265D01*
X0025008Y0093265D01*
X0026076Y0092198D01*
X0021805Y0087928D01*
X0022873Y0086860D01*
X0025008Y0086860D01*
X0026076Y0087928D01*
X0026076Y0092198D01*
X0021805Y0092198D02*
X0021805Y0087928D01*
X0022873Y0083265D02*
X0021805Y0082198D01*
X0021805Y0077928D01*
X0019630Y0080063D02*
X0018563Y0078995D01*
X0015360Y0078995D01*
X0015360Y0076860D02*
X0015360Y0083265D01*
X0018563Y0083265D01*
X0019630Y0082198D01*
X0019630Y0080063D01*
X0022873Y0083265D02*
X0025008Y0083265D01*
X0026076Y0082198D01*
X0028251Y0086860D02*
X0029319Y0086860D01*
X0029319Y0087928D01*
X0028251Y0087928D01*
X0028251Y0086860D01*
X0037919Y0087928D02*
X0042190Y0092198D01*
X0042190Y0087928D01*
X0041122Y0086860D01*
X0038987Y0086860D01*
X0037919Y0087928D01*
X0037919Y0092198D01*
X0038987Y0093265D01*
X0041122Y0093265D01*
X0042190Y0092198D01*
X0026076Y0107928D02*
X0025008Y0106860D01*
X0022873Y0106860D01*
X0021805Y0107928D01*
X0026076Y0112198D01*
X0026076Y0107928D01*
X0026076Y0112198D02*
X0025008Y0113265D01*
X0022873Y0113265D01*
X0021805Y0112198D01*
X0021805Y0107928D01*
X0019630Y0110063D02*
X0018563Y0108995D01*
X0015360Y0108995D01*
X0015360Y0106860D02*
X0015360Y0113265D01*
X0018563Y0113265D01*
X0019630Y0112198D01*
X0019630Y0110063D01*
X0022873Y0116860D02*
X0021805Y0117928D01*
X0026076Y0122198D01*
X0026076Y0117928D01*
X0025008Y0116860D01*
X0022873Y0116860D01*
X0021805Y0117928D02*
X0021805Y0122198D01*
X0022873Y0123265D01*
X0025008Y0123265D01*
X0026076Y0122198D01*
X0028251Y0117928D02*
X0029319Y0117928D01*
X0029319Y0116860D01*
X0028251Y0116860D01*
X0028251Y0117928D01*
X0031474Y0116860D02*
X0035744Y0121130D01*
X0035744Y0122198D01*
X0034676Y0123265D01*
X0032541Y0123265D01*
X0031474Y0122198D01*
X0031474Y0126860D02*
X0035744Y0131130D01*
X0035744Y0132198D01*
X0034676Y0133265D01*
X0032541Y0133265D01*
X0031474Y0132198D01*
X0029319Y0127928D02*
X0029319Y0126860D01*
X0028251Y0126860D01*
X0028251Y0127928D01*
X0029319Y0127928D01*
X0031474Y0126860D02*
X0035744Y0126860D01*
X0037919Y0127928D02*
X0037919Y0130063D01*
X0041122Y0130063D01*
X0042190Y0128995D01*
X0042190Y0127928D01*
X0041122Y0126860D01*
X0038987Y0126860D01*
X0037919Y0127928D01*
X0037919Y0130063D02*
X0040054Y0132198D01*
X0042190Y0133265D01*
X0041122Y0136860D02*
X0038987Y0136860D01*
X0037919Y0137928D01*
X0037919Y0140063D02*
X0040054Y0141130D01*
X0041122Y0141130D01*
X0042190Y0140063D01*
X0042190Y0137928D01*
X0041122Y0136860D01*
X0037919Y0140063D02*
X0037919Y0143265D01*
X0042190Y0143265D01*
X0035744Y0142198D02*
X0035744Y0141130D01*
X0031474Y0136860D01*
X0035744Y0136860D01*
X0035744Y0142198D02*
X0034676Y0143265D01*
X0032541Y0143265D01*
X0031474Y0142198D01*
X0029319Y0137928D02*
X0029319Y0136860D01*
X0028251Y0136860D01*
X0028251Y0137928D01*
X0029319Y0137928D01*
X0026076Y0137928D02*
X0026076Y0142198D01*
X0021805Y0137928D01*
X0022873Y0136860D01*
X0025008Y0136860D01*
X0026076Y0137928D01*
X0026076Y0142198D02*
X0025008Y0143265D01*
X0022873Y0143265D01*
X0021805Y0142198D01*
X0021805Y0137928D01*
X0019630Y0140063D02*
X0018563Y0138995D01*
X0015360Y0138995D01*
X0015360Y0136860D02*
X0015360Y0143265D01*
X0018563Y0143265D01*
X0019630Y0142198D01*
X0019630Y0140063D01*
X0018563Y0146860D02*
X0016428Y0146860D01*
X0015360Y0147928D01*
X0015360Y0152198D01*
X0016428Y0153265D01*
X0018563Y0153265D01*
X0019630Y0152198D01*
X0019630Y0150063D02*
X0017495Y0150063D01*
X0019630Y0150063D02*
X0019630Y0147928D01*
X0018563Y0146860D01*
X0021805Y0146860D02*
X0021805Y0153265D01*
X0026076Y0146860D01*
X0026076Y0153265D01*
X0028251Y0153265D02*
X0031454Y0153265D01*
X0032521Y0152198D01*
X0032521Y0147928D01*
X0031454Y0146860D01*
X0028251Y0146860D01*
X0028251Y0153265D01*
X0025008Y0133265D02*
X0022873Y0133265D01*
X0021805Y0132198D01*
X0021805Y0127928D01*
X0026076Y0132198D01*
X0026076Y0127928D01*
X0025008Y0126860D01*
X0022873Y0126860D01*
X0021805Y0127928D01*
X0019630Y0130063D02*
X0018563Y0128995D01*
X0015360Y0128995D01*
X0015360Y0126860D02*
X0015360Y0133265D01*
X0018563Y0133265D01*
X0019630Y0132198D01*
X0019630Y0130063D01*
X0025008Y0133265D02*
X0026076Y0132198D01*
X0018563Y0123265D02*
X0019630Y0122198D01*
X0019630Y0120063D01*
X0018563Y0118995D01*
X0015360Y0118995D01*
X0015360Y0116860D02*
X0015360Y0123265D01*
X0018563Y0123265D01*
X0031474Y0116860D02*
X0035744Y0116860D01*
X0037919Y0116860D02*
X0037919Y0117928D01*
X0042190Y0122198D01*
X0042190Y0123265D01*
X0037919Y0123265D01*
X0093132Y0122198D02*
X0093132Y0121130D01*
X0094200Y0120063D01*
X0096335Y0120063D01*
X0097403Y0118995D01*
X0097403Y0117928D01*
X0096335Y0116860D01*
X0094200Y0116860D01*
X0093132Y0117928D01*
X0093132Y0122198D02*
X0094200Y0123265D01*
X0096335Y0123265D01*
X0097403Y0122198D01*
X0099578Y0123265D02*
X0099578Y0116860D01*
X0101713Y0118995D01*
X0103848Y0116860D01*
X0103848Y0123265D01*
X0106023Y0123265D02*
X0109226Y0123265D01*
X0110294Y0122198D01*
X0110294Y0117928D01*
X0109226Y0116860D01*
X0106023Y0116860D01*
X0106023Y0123265D01*
X0105997Y0126860D02*
X0105997Y0133265D01*
X0108172Y0133265D02*
X0111375Y0133265D01*
X0112442Y0132198D01*
X0112442Y0127928D01*
X0111375Y0126860D01*
X0108172Y0126860D01*
X0108172Y0133265D01*
X0109246Y0136860D02*
X0110314Y0136860D01*
X0110314Y0137928D01*
X0109246Y0137928D01*
X0109246Y0136860D01*
X0107071Y0137928D02*
X0106003Y0136860D01*
X0103868Y0136860D01*
X0102801Y0137928D01*
X0107071Y0142198D01*
X0107071Y0137928D01*
X0107071Y0142198D02*
X0106003Y0143265D01*
X0103868Y0143265D01*
X0102801Y0142198D01*
X0102801Y0137928D01*
X0100626Y0140063D02*
X0100626Y0142198D01*
X0099558Y0143265D01*
X0096355Y0143265D01*
X0096355Y0136860D01*
X0096355Y0138995D02*
X0099558Y0138995D01*
X0100626Y0140063D01*
X0101726Y0133265D02*
X0101726Y0126860D01*
X0103862Y0128995D01*
X0105997Y0126860D01*
X0099551Y0127928D02*
X0098484Y0126860D01*
X0096349Y0126860D01*
X0095281Y0127928D01*
X0096349Y0130063D02*
X0098484Y0130063D01*
X0099551Y0128995D01*
X0099551Y0127928D01*
X0099551Y0132198D02*
X0098484Y0133265D01*
X0096349Y0133265D01*
X0095281Y0132198D01*
X0095281Y0131130D01*
X0096349Y0130063D01*
X0107091Y0146860D02*
X0106023Y0147928D01*
X0106023Y0152198D01*
X0107091Y0153265D01*
X0109226Y0153265D01*
X0110294Y0152198D01*
X0110294Y0150063D02*
X0108159Y0150063D01*
X0110294Y0150063D02*
X0110294Y0147928D01*
X0109226Y0146860D01*
X0107091Y0146860D01*
X0112469Y0146860D02*
X0112469Y0153265D01*
X0116739Y0146860D01*
X0116739Y0153265D01*
X0118914Y0153265D02*
X0122117Y0153265D01*
X0123185Y0152198D01*
X0123185Y0147928D01*
X0122117Y0146860D01*
X0118914Y0146860D01*
X0118914Y0153265D01*
X0119982Y0143265D02*
X0118914Y0142198D01*
X0119982Y0143265D02*
X0122117Y0143265D01*
X0123185Y0142198D01*
X0123185Y0141130D01*
X0118914Y0136860D01*
X0123185Y0136860D01*
X0122117Y0133265D02*
X0119982Y0133265D01*
X0118914Y0132198D01*
X0118914Y0127928D01*
X0119982Y0126860D01*
X0122117Y0126860D01*
X0123185Y0127928D01*
X0123185Y0132198D01*
X0122117Y0133265D01*
X0116753Y0133265D02*
X0114617Y0133265D01*
X0115685Y0133265D02*
X0115685Y0126860D01*
X0114617Y0126860D02*
X0116753Y0126860D01*
X0115672Y0123265D02*
X0113537Y0123265D01*
X0112469Y0122198D01*
X0112469Y0117928D01*
X0113537Y0116860D01*
X0115672Y0116860D01*
X0116739Y0117928D01*
X0118914Y0116860D02*
X0123185Y0116860D01*
X0118914Y0116860D02*
X0118914Y0123265D01*
X0116739Y0122198D02*
X0115672Y0123265D01*
X0116739Y0136860D02*
X0112469Y0136860D01*
X0116739Y0141130D01*
X0116739Y0142198D01*
X0115672Y0143265D01*
X0113537Y0143265D01*
X0112469Y0142198D01*
X0019630Y0006860D02*
X0015360Y0006860D01*
D11*
X0015060Y0007560D02*
X0015060Y0012560D01*
X0012560Y0015060D01*
X0015060Y0017560D01*
X0015060Y0022560D01*
X0012560Y0025060D01*
X0015060Y0027560D01*
X0015060Y0032560D01*
X0012560Y0035060D01*
X0015060Y0037560D01*
X0015060Y0042560D01*
X0012560Y0045060D01*
X0015060Y0047560D01*
X0015060Y0052560D01*
X0012560Y0055060D01*
X0015060Y0057560D01*
X0015060Y0062560D01*
X0012560Y0065060D01*
X0015060Y0067560D01*
X0015060Y0072560D01*
X0012560Y0075060D01*
X0015060Y0077560D01*
X0015060Y0082560D01*
X0012560Y0085060D01*
X0015060Y0087560D01*
X0015060Y0092560D01*
X0012560Y0095060D01*
X0015060Y0097560D01*
X0015060Y0102560D01*
X0012560Y0105060D01*
X0015060Y0107560D01*
X0015060Y0112560D01*
X0012560Y0115060D01*
X0015060Y0117560D01*
X0015060Y0122560D01*
X0012560Y0125060D01*
X0015060Y0127560D01*
X0015060Y0132560D01*
X0012560Y0135060D01*
X0015060Y0137560D01*
X0015060Y0142560D01*
X0012560Y0145060D01*
X0015060Y0147560D01*
X0015060Y0152560D01*
X0012560Y0155060D01*
X0007560Y0155060D01*
X0005060Y0152560D01*
X0005060Y0147560D01*
X0007560Y0145060D01*
X0005060Y0142560D01*
X0005060Y0137560D01*
X0007560Y0135060D01*
X0005060Y0132560D01*
X0005060Y0127560D01*
X0007560Y0125060D01*
X0005060Y0122560D01*
X0005060Y0117560D01*
X0007560Y0115060D01*
X0005060Y0112560D01*
X0005060Y0107560D01*
X0007560Y0105060D01*
X0005060Y0102560D01*
X0005060Y0097560D01*
X0007560Y0095060D01*
X0005060Y0092560D01*
X0005060Y0087560D01*
X0007560Y0085060D01*
X0005060Y0082560D01*
X0005060Y0077560D01*
X0007560Y0075060D01*
X0005060Y0072560D01*
X0005060Y0067560D01*
X0007560Y0065060D01*
X0005060Y0062560D01*
X0005060Y0057560D01*
X0007560Y0055060D01*
X0005060Y0052560D01*
X0005060Y0047560D01*
X0007560Y0045060D01*
X0005060Y0042560D01*
X0005060Y0037560D01*
X0007560Y0035060D01*
X0005060Y0032560D01*
X0005060Y0027560D01*
X0007560Y0025060D01*
X0005060Y0022560D01*
X0005060Y0017560D01*
X0007560Y0015060D01*
X0005060Y0012560D01*
X0005060Y0007560D01*
X0007560Y0005060D01*
X0012560Y0005060D01*
X0015060Y0007560D01*
X0025060Y0007560D02*
X0025060Y0012560D01*
X0027560Y0015060D01*
X0032560Y0015060D01*
X0035060Y0012560D01*
X0037560Y0015060D01*
X0042560Y0015060D01*
X0045060Y0012560D01*
X0047560Y0015060D01*
X0052560Y0015060D01*
X0055060Y0012560D01*
X0057560Y0015060D01*
X0062560Y0015060D01*
X0065060Y0012560D01*
X0067560Y0015060D01*
X0072560Y0015060D01*
X0075060Y0012560D01*
X0077560Y0015060D01*
X0082560Y0015060D01*
X0085060Y0012560D01*
X0087560Y0015060D01*
X0092560Y0015060D01*
X0095060Y0012560D01*
X0097560Y0015060D01*
X0102560Y0015060D01*
X0105060Y0012560D01*
X0107560Y0015060D01*
X0112560Y0015060D01*
X0115060Y0012560D01*
X0115060Y0007560D01*
X0112560Y0005060D01*
X0107560Y0005060D01*
X0105060Y0007560D01*
X0102560Y0005060D01*
X0097560Y0005060D01*
X0095060Y0007560D01*
X0092560Y0005060D01*
X0087560Y0005060D01*
X0085060Y0007560D01*
X0082560Y0005060D01*
X0077560Y0005060D01*
X0075060Y0007560D01*
X0072560Y0005060D01*
X0067560Y0005060D01*
X0065060Y0007560D01*
X0062560Y0005060D01*
X0057560Y0005060D01*
X0055060Y0007560D01*
X0052560Y0005060D01*
X0047560Y0005060D01*
X0045060Y0007560D01*
X0042560Y0005060D01*
X0037560Y0005060D01*
X0035060Y0007560D01*
X0032560Y0005060D01*
X0027560Y0005060D01*
X0025060Y0007560D01*
X0125060Y0007560D02*
X0125060Y0012560D01*
X0127560Y0015060D01*
X0125060Y0017560D01*
X0125060Y0022560D01*
X0127560Y0025060D01*
X0125060Y0027560D01*
X0125060Y0032560D01*
X0127560Y0035060D01*
X0125060Y0037560D01*
X0125060Y0042560D01*
X0127560Y0045060D01*
X0125060Y0047560D01*
X0125060Y0052560D01*
X0127560Y0055060D01*
X0125060Y0057560D01*
X0125060Y0062560D01*
X0127560Y0065060D01*
X0125060Y0067560D01*
X0125060Y0072560D01*
X0127560Y0075060D01*
X0125060Y0077560D01*
X0125060Y0082560D01*
X0127560Y0085060D01*
X0125060Y0087560D01*
X0125060Y0092560D01*
X0127560Y0095060D01*
X0125060Y0097560D01*
X0125060Y0102560D01*
X0127560Y0105060D01*
X0125060Y0107560D01*
X0125060Y0112560D01*
X0127560Y0115060D01*
X0125060Y0117560D01*
X0125060Y0122560D01*
X0127560Y0125060D01*
X0125060Y0127560D01*
X0125060Y0132560D01*
X0127560Y0135060D01*
X0125060Y0137560D01*
X0125060Y0142560D01*
X0127560Y0145060D01*
X0125060Y0147560D01*
X0125060Y0152560D01*
X0127560Y0155060D01*
X0132560Y0155060D01*
X0135060Y0152560D01*
X0135060Y0147560D01*
X0132560Y0145060D01*
X0135060Y0142560D01*
X0135060Y0137560D01*
X0132560Y0135060D01*
X0135060Y0132560D01*
X0135060Y0127560D01*
X0132560Y0125060D01*
X0135060Y0122560D01*
X0135060Y0117560D01*
X0132560Y0115060D01*
X0135060Y0112560D01*
X0135060Y0107560D01*
X0132560Y0105060D01*
X0135060Y0102560D01*
X0135060Y0097560D01*
X0132560Y0095060D01*
X0135060Y0092560D01*
X0135060Y0087560D01*
X0132560Y0085060D01*
X0135060Y0082560D01*
X0135060Y0077560D01*
X0132560Y0075060D01*
X0135060Y0072560D01*
X0135060Y0067560D01*
X0132560Y0065060D01*
X0135060Y0062560D01*
X0135060Y0057560D01*
X0132560Y0055060D01*
X0135060Y0052560D01*
X0135060Y0047560D01*
X0132560Y0045060D01*
X0135060Y0042560D01*
X0135060Y0037560D01*
X0132560Y0035060D01*
X0135060Y0032560D01*
X0135060Y0027560D01*
X0132560Y0025060D01*
X0135060Y0022560D01*
X0135060Y0017560D01*
X0132560Y0015060D01*
X0135060Y0012560D01*
X0135060Y0007560D01*
X0132560Y0005060D01*
X0127560Y0005060D01*
X0125060Y0007560D01*
D12*
X0002408Y0006578D02*
X0002408Y0005944D01*
X0002408Y0006261D02*
X0003993Y0006261D01*
X0004310Y0005944D01*
X0004310Y0005627D01*
X0003993Y0005310D01*
X0003359Y0007520D02*
X0002408Y0008471D01*
X0004310Y0008471D01*
X0003359Y0008788D02*
X0003359Y0007520D01*
X0045375Y0098564D02*
X0045375Y0161556D01*
X0084745Y0161556D01*
X0084745Y0098564D01*
X0045375Y0098564D01*
X0111524Y0004312D02*
X0112158Y0004312D01*
X0111841Y0004312D02*
X0111841Y0002727D01*
X0111524Y0002410D01*
X0111207Y0002410D01*
X0110890Y0002727D01*
X0113100Y0002410D02*
X0114368Y0003678D01*
X0114368Y0003995D01*
X0114051Y0004312D01*
X0113417Y0004312D01*
X0113100Y0003995D01*
X0113100Y0002410D02*
X0114368Y0002410D01*
X0137393Y0150890D02*
X0137710Y0151207D01*
X0137710Y0151524D01*
X0137393Y0151841D01*
X0135808Y0151841D01*
X0135808Y0151524D02*
X0135808Y0152158D01*
X0136442Y0153100D02*
X0135808Y0153734D01*
X0137710Y0153734D01*
X0137710Y0153100D02*
X0137710Y0154368D01*
D13*
X0066365Y0165160D02*
X0064496Y0165160D01*
X0063602Y0165160D02*
X0062668Y0166094D01*
X0062201Y0165160D02*
X0061734Y0165627D01*
X0061734Y0167495D01*
X0062201Y0167962D01*
X0063135Y0167962D01*
X0063602Y0167495D01*
X0063602Y0165627D01*
X0063135Y0165160D01*
X0062201Y0165160D01*
X0060840Y0165160D02*
X0058972Y0165160D01*
X0060840Y0167028D01*
X0060840Y0167495D01*
X0060373Y0167962D01*
X0059439Y0167962D01*
X0058972Y0167495D01*
X0058078Y0166561D02*
X0056209Y0166561D01*
X0057611Y0167962D01*
X0057611Y0165160D01*
X0055315Y0167962D02*
X0053447Y0167962D01*
X0054381Y0167962D02*
X0054381Y0165160D01*
X0052553Y0165627D02*
X0052086Y0165160D01*
X0050685Y0165160D01*
X0050685Y0167962D01*
X0052086Y0167962D01*
X0052553Y0167495D01*
X0052553Y0167028D01*
X0052086Y0166561D01*
X0050685Y0166561D01*
X0049791Y0165627D02*
X0049791Y0167495D01*
X0049324Y0167962D01*
X0047922Y0167962D01*
X0047922Y0165160D01*
X0049324Y0165160D01*
X0049791Y0165627D01*
X0052086Y0166561D02*
X0052553Y0166094D01*
X0052553Y0165627D01*
X0047028Y0165160D02*
X0047028Y0167962D01*
X0046094Y0167028D01*
X0045160Y0167962D01*
X0045160Y0165160D01*
X0064496Y0167028D02*
X0065431Y0167962D01*
X0065431Y0165160D01*
M02*
