G75*
%MOIN*%
%OFA0B0*%
%FSLAX25Y25*%
%IPPOS*%
%LPD*%
%AMOC8*
5,1,8,0,0,1.08239X$1,22.5*
%
%ADD10C,0.08200*%
%ADD11R,0.06312X0.03950*%
%ADD12R,0.06312X0.02375*%
%ADD13R,0.02375X0.05131*%
%ADD14R,0.02375X0.06312*%
%ADD15R,0.04737X0.02375*%
D10*
X0010060Y0010060D03*
X0010060Y0020060D03*
X0010060Y0030060D03*
X0010060Y0040060D03*
X0010060Y0050060D03*
X0010060Y0060060D03*
X0010060Y0070060D03*
X0010060Y0080060D03*
X0010060Y0090060D03*
X0010060Y0100060D03*
X0010060Y0110060D03*
X0010060Y0120060D03*
X0010060Y0130060D03*
X0010060Y0140060D03*
X0010060Y0150060D03*
X0030060Y0010060D03*
X0040060Y0010060D03*
X0050060Y0010060D03*
X0060060Y0010060D03*
X0070060Y0010060D03*
X0080060Y0010060D03*
X0090060Y0010060D03*
X0100060Y0010060D03*
X0110060Y0010060D03*
X0130060Y0010060D03*
X0130060Y0020060D03*
X0130060Y0030060D03*
X0130060Y0040060D03*
X0130060Y0050060D03*
X0130060Y0060060D03*
X0130060Y0070060D03*
X0130060Y0080060D03*
X0130060Y0090060D03*
X0130060Y0100060D03*
X0130060Y0110060D03*
X0130060Y0120060D03*
X0130060Y0130060D03*
X0130060Y0140060D03*
X0130060Y0150060D03*
D11*
X0083170Y0145021D03*
X0046950Y0145021D03*
D12*
X0046950Y0133210D03*
X0046950Y0130454D03*
X0046950Y0127698D03*
X0046950Y0124942D03*
X0046950Y0122186D03*
X0046950Y0119430D03*
X0046950Y0116674D03*
X0046950Y0113918D03*
X0046950Y0111162D03*
X0046950Y0108406D03*
X0083170Y0108406D03*
X0083170Y0105651D03*
X0083170Y0111162D03*
X0083170Y0113918D03*
X0083170Y0116674D03*
X0083170Y0119430D03*
X0083170Y0122186D03*
X0083170Y0124942D03*
X0083170Y0127698D03*
X0083170Y0130454D03*
X0083170Y0133210D03*
X0083170Y0135966D03*
X0083170Y0138721D03*
X0083170Y0141477D03*
D13*
X0081595Y0100729D03*
X0048525Y0100729D03*
D14*
X0051280Y0100139D03*
X0054036Y0100139D03*
X0056792Y0100139D03*
X0059548Y0100139D03*
X0062304Y0100139D03*
X0065060Y0100139D03*
X0067816Y0100139D03*
X0070572Y0100139D03*
X0073328Y0100139D03*
X0076084Y0100139D03*
X0078840Y0100139D03*
D15*
X0076477Y0137343D03*
X0076477Y0142855D03*
M02*
