G75*
%MOIN*%
%OFA0B0*%
%FSLAX25Y25*%
%IPPOS*%
%LPD*%
%AMOC8*
5,1,8,0,0,1.08239X$1,22.5*
%
%ADD10C,0.07400*%
%ADD11R,0.05512X0.03150*%
%ADD12R,0.05512X0.01575*%
%ADD13R,0.01575X0.04331*%
%ADD14R,0.01575X0.05512*%
%ADD15R,0.03937X0.01575*%
%ADD16C,0.00800*%
D10*
X0010060Y0010060D03*
X0010060Y0020060D03*
X0010060Y0030060D03*
X0010060Y0040060D03*
X0010060Y0050060D03*
X0010060Y0060060D03*
X0010060Y0070060D03*
X0010060Y0080060D03*
X0010060Y0090060D03*
X0010060Y0100060D03*
X0010060Y0110060D03*
X0010060Y0120060D03*
X0010060Y0130060D03*
X0010060Y0140060D03*
X0010060Y0150060D03*
X0030060Y0010060D03*
X0040060Y0010060D03*
X0050060Y0010060D03*
X0060060Y0010060D03*
X0070060Y0010060D03*
X0080060Y0010060D03*
X0090060Y0010060D03*
X0100060Y0010060D03*
X0110060Y0010060D03*
X0130060Y0010060D03*
X0130060Y0020060D03*
X0130060Y0030060D03*
X0130060Y0040060D03*
X0130060Y0050060D03*
X0130060Y0060060D03*
X0130060Y0070060D03*
X0130060Y0080060D03*
X0130060Y0090060D03*
X0130060Y0100060D03*
X0130060Y0110060D03*
X0130060Y0120060D03*
X0130060Y0130060D03*
X0130060Y0140060D03*
X0130060Y0150060D03*
D11*
X0083170Y0145021D03*
X0046950Y0145021D03*
D12*
X0046950Y0133210D03*
X0046950Y0130454D03*
X0046950Y0127698D03*
X0046950Y0124942D03*
X0046950Y0122186D03*
X0046950Y0119430D03*
X0046950Y0116674D03*
X0046950Y0113918D03*
X0046950Y0111162D03*
X0046950Y0108406D03*
X0083170Y0108406D03*
X0083170Y0105651D03*
X0083170Y0111162D03*
X0083170Y0113918D03*
X0083170Y0116674D03*
X0083170Y0119430D03*
X0083170Y0122186D03*
X0083170Y0124942D03*
X0083170Y0127698D03*
X0083170Y0130454D03*
X0083170Y0133210D03*
X0083170Y0135966D03*
X0083170Y0138721D03*
X0083170Y0141477D03*
D13*
X0081595Y0100729D03*
X0048525Y0100729D03*
D14*
X0051280Y0100139D03*
X0054036Y0100139D03*
X0056792Y0100139D03*
X0059548Y0100139D03*
X0062304Y0100139D03*
X0065060Y0100139D03*
X0067816Y0100139D03*
X0070572Y0100139D03*
X0073328Y0100139D03*
X0076084Y0100139D03*
X0078840Y0100139D03*
D15*
X0076477Y0137343D03*
X0076477Y0142855D03*
D16*
X0083170Y0141477D02*
X0083460Y0141060D01*
X0129060Y0141060D01*
X0130060Y0140060D01*
X0125060Y0145060D02*
X0130060Y0150060D01*
X0125060Y0145060D02*
X0083460Y0145060D01*
X0083170Y0145021D01*
X0083170Y0138721D02*
X0083460Y0138660D01*
X0121860Y0138660D01*
X0129860Y0130660D01*
X0130060Y0130060D01*
X0130060Y0120060D02*
X0114660Y0135460D01*
X0083460Y0135460D01*
X0083170Y0135966D01*
X0083170Y0133210D02*
X0083460Y0133060D01*
X0107460Y0133060D01*
X0129860Y0110660D01*
X0130060Y0110060D01*
X0125060Y0109060D02*
X0125060Y0105060D01*
X0130060Y0100060D01*
X0123460Y0097060D02*
X0129860Y0090660D01*
X0130060Y0090060D01*
X0125060Y0089860D02*
X0125060Y0085060D01*
X0130060Y0080060D01*
X0123460Y0077060D02*
X0129860Y0070660D01*
X0130060Y0070060D01*
X0123460Y0077060D02*
X0123460Y0089060D01*
X0120260Y0092260D01*
X0120260Y0106660D01*
X0105060Y0121860D01*
X0083460Y0121860D01*
X0083170Y0122186D01*
X0083460Y0119460D02*
X0083170Y0119430D01*
X0083460Y0119460D02*
X0085860Y0119460D01*
X0121860Y0083460D01*
X0121860Y0068260D01*
X0130060Y0060060D01*
X0129860Y0050660D02*
X0130060Y0050060D01*
X0129860Y0050660D02*
X0120260Y0060260D01*
X0120260Y0082660D01*
X0086660Y0116260D01*
X0083460Y0116260D01*
X0083170Y0116674D01*
X0083170Y0113918D02*
X0083460Y0113860D01*
X0085860Y0113860D01*
X0118660Y0081060D01*
X0118660Y0051460D01*
X0130060Y0040060D01*
X0129860Y0030660D02*
X0130060Y0030060D01*
X0129860Y0030660D02*
X0117060Y0043460D01*
X0117060Y0080260D01*
X0086660Y0110660D01*
X0083460Y0110660D01*
X0083170Y0111162D01*
X0083170Y0108406D02*
X0083460Y0108260D01*
X0085860Y0108260D01*
X0115460Y0078660D01*
X0115460Y0034660D01*
X0130060Y0020060D01*
X0129860Y0010660D02*
X0130060Y0010060D01*
X0129860Y0010660D02*
X0113860Y0026660D01*
X0113860Y0074660D01*
X0083460Y0105060D01*
X0083170Y0105651D01*
X0081595Y0100729D02*
X0081860Y0100260D01*
X0081860Y0038660D01*
X0109860Y0010660D01*
X0110060Y0010060D01*
X0100060Y0010060D02*
X0079460Y0030660D01*
X0079460Y0099460D01*
X0078840Y0100139D01*
X0076260Y0099460D02*
X0076084Y0100139D01*
X0076260Y0099460D02*
X0076260Y0024260D01*
X0089860Y0010660D01*
X0090060Y0010060D01*
X0080060Y0010060D02*
X0073860Y0016260D01*
X0073860Y0099460D01*
X0073328Y0100139D01*
X0070660Y0099460D02*
X0070572Y0100139D01*
X0070660Y0099460D02*
X0070660Y0010660D01*
X0070060Y0010060D01*
X0067460Y0017860D02*
X0060260Y0010660D01*
X0060060Y0010060D01*
X0067460Y0017860D02*
X0067460Y0099460D01*
X0067816Y0100139D01*
X0065060Y0100139D02*
X0065060Y0025060D01*
X0050060Y0010060D01*
X0040260Y0010660D02*
X0040060Y0010060D01*
X0040260Y0010660D02*
X0061860Y0032260D01*
X0061860Y0099460D01*
X0062304Y0100139D01*
X0059548Y0100139D02*
X0059460Y0099460D01*
X0059460Y0039460D01*
X0030060Y0010060D01*
X0010060Y0010060D02*
X0056260Y0056260D01*
X0056260Y0099460D01*
X0056792Y0100139D01*
X0054036Y0100139D02*
X0053860Y0099460D01*
X0053860Y0063460D01*
X0010660Y0020260D01*
X0010060Y0020060D01*
X0010060Y0030060D02*
X0050660Y0070660D01*
X0050660Y0099460D01*
X0051280Y0100139D01*
X0048525Y0100729D02*
X0048260Y0100260D01*
X0048260Y0077860D01*
X0010660Y0040260D01*
X0010060Y0040060D01*
X0010060Y0050060D02*
X0018660Y0058660D01*
X0018660Y0076260D01*
X0046660Y0104260D01*
X0046660Y0108260D01*
X0046950Y0108406D01*
X0046660Y0110660D02*
X0043460Y0110660D01*
X0017060Y0084260D01*
X0017060Y0066660D01*
X0010660Y0060260D01*
X0010060Y0060060D01*
X0010060Y0070060D02*
X0015460Y0075460D01*
X0015460Y0085060D01*
X0044260Y0113860D01*
X0046660Y0113860D01*
X0046950Y0113918D01*
X0046950Y0111162D02*
X0046660Y0110660D01*
X0046660Y0116260D02*
X0043460Y0116260D01*
X0010660Y0083460D01*
X0010660Y0080260D01*
X0010060Y0080060D01*
X0010060Y0090060D02*
X0039460Y0119460D01*
X0046660Y0119460D01*
X0046950Y0119430D01*
X0046660Y0121860D02*
X0046950Y0122186D01*
X0046660Y0121860D02*
X0032260Y0121860D01*
X0010660Y0100260D01*
X0010060Y0100060D01*
X0010060Y0110060D02*
X0024260Y0124260D01*
X0046660Y0124260D01*
X0046950Y0124942D01*
X0046660Y0127460D02*
X0046950Y0127698D01*
X0046660Y0127460D02*
X0017860Y0127460D01*
X0010660Y0120260D01*
X0010060Y0120060D01*
X0010060Y0130060D02*
X0010660Y0130660D01*
X0046660Y0130660D01*
X0046950Y0130454D01*
X0046950Y0133210D02*
X0046660Y0133860D01*
X0016260Y0133860D01*
X0010060Y0140060D01*
X0015460Y0145060D02*
X0010660Y0149860D01*
X0010060Y0150060D01*
X0015460Y0145060D02*
X0046660Y0145060D01*
X0046950Y0145021D01*
X0046950Y0116674D02*
X0046660Y0116260D01*
X0083170Y0124942D02*
X0083460Y0124260D01*
X0105060Y0124260D01*
X0121860Y0107460D01*
X0121860Y0093060D01*
X0125060Y0089860D01*
X0123460Y0097060D02*
X0123460Y0108260D01*
X0104260Y0127460D01*
X0083460Y0127460D01*
X0083170Y0127698D01*
X0083460Y0129860D02*
X0083170Y0130454D01*
X0083460Y0129860D02*
X0104260Y0129860D01*
X0125060Y0109060D01*
M02*
